<svg width="16" height="17" viewBox="0 0 16 17" fill="none" xmlns="http://www.w3.org/2000/svg">
<path opacity="0.6" d="M12.6664 4.5C12.4896 4.5 12.3199 4.5702 12.1949 4.69516C12.0698 4.82012 11.9995 4.9896 11.9995 5.16632V7.83158C11.9995 8.0083 11.9293 8.17777 11.8042 8.30273C11.6792 8.42769 11.5095 8.49789 11.3327 8.49789H4.93734L5.80428 7.63835C5.92985 7.51288 6.0004 7.3427 6.0004 7.16526C6.0004 6.98782 5.92985 6.81765 5.80428 6.69218C5.6787 6.56671 5.50839 6.49622 5.3308 6.49622C5.15321 6.49622 4.98289 6.56671 4.85732 6.69218L2.85669 8.69112C2.79598 8.75449 2.74839 8.82922 2.71665 8.91101C2.64995 9.07323 2.64995 9.25519 2.71665 9.41741C2.74839 9.4992 2.79598 9.57392 2.85669 9.63729L4.85732 11.6362C4.91931 11.6987 4.99307 11.7483 5.07433 11.7821C5.1556 11.8159 5.24276 11.8333 5.3308 11.8333C5.41883 11.8333 5.506 11.8159 5.58726 11.7821C5.66853 11.7483 5.74228 11.6987 5.80428 11.6362C5.86678 11.5743 5.9164 11.5006 5.95025 11.4194C5.98411 11.3382 6.00154 11.2511 6.00154 11.1632C6.00154 11.0752 5.98411 10.9881 5.95025 10.9069C5.9164 10.8257 5.86678 10.752 5.80428 10.6901L4.93734 9.83052H11.3327C11.8633 9.83052 12.3721 9.61992 12.7473 9.24505C13.1225 8.87017 13.3333 8.36173 13.3333 7.83158V5.16632C13.3333 4.9896 13.263 4.82012 13.138 4.69516C13.0129 4.5702 12.8433 4.5 12.6664 4.5Z" fill="white"/>
</svg>
